<svg width="16" height="16" viewBox="0 0 16 16" fill="none" xmlns="http://www.w3.org/2000/svg">
<path d="M6.35354 2.64597L11.3535 7.64597C11.4 7.69241 11.4369 7.74755 11.4621 7.80825C11.4872 7.86895 11.5002 7.93401 11.5002 7.99972C11.5002 8.06543 11.4872 8.13049 11.4621 8.19119C11.4369 8.25189 11.4 8.30704 11.3535 8.35347L6.35354 13.3535C6.25972 13.4473 6.13247 13.5 5.99979 13.5C5.86711 13.5 5.73986 13.4473 5.64604 13.3535C5.55222 13.2597 5.49951 13.1324 5.49951 12.9997C5.49951 12.867 5.55222 12.7398 5.64604 12.646L10.2929 7.99972L5.64604 3.35347C5.59958 3.30702 5.56273 3.25187 5.53759 3.19117C5.51245 3.13047 5.49951 3.06542 5.49951 2.99972C5.49951 2.93402 5.51245 2.86897 5.53759 2.80827C5.56273 2.74758 5.59958 2.69243 5.64604 2.64597C5.69249 2.59952 5.74764 2.56267 5.80834 2.53753C5.86904 2.51238 5.93409 2.49944 5.99979 2.49944C6.06549 2.49944 6.13054 2.51238 6.19124 2.53753C6.25193 2.56267 6.30708 2.59952 6.35354 2.64597Z" fill="#78716C"/>
</svg>
