<svg width="21" height="20" viewBox="0 0 21 20" fill="none" xmlns="http://www.w3.org/2000/svg">
<path d="M20.2512 10.8119C20.0919 12.6643 19.4068 14.4328 18.2765 15.9091C17.1463 17.3854 15.6179 18.5083 13.8711 19.1455C12.1244 19.7827 10.2321 19.9077 8.41666 19.506C6.60127 19.1042 4.93839 18.1923 3.62365 16.8776C2.30892 15.5628 1.39703 13.9 0.99526 12.0846C0.593493 10.2692 0.718568 8.3768 1.35577 6.63008C1.99297 4.88336 3.11579 3.35496 4.59212 2.22469C6.06845 1.09443 7.83689 0.409327 9.68936 0.249985C9.78786 0.241859 9.88698 0.253212 9.98109 0.283396C10.0752 0.31358 10.1624 0.362004 10.2378 0.425902C10.3132 0.489801 10.3753 0.567922 10.4205 0.655807C10.4657 0.743692 10.4931 0.839618 10.5012 0.93811C10.5094 1.0366 10.498 1.13573 10.4678 1.22983C10.4376 1.32394 10.3892 1.41117 10.3253 1.48656C10.2614 1.56195 10.1833 1.62402 10.0954 1.66922C10.0075 1.71441 9.91161 1.74186 9.81311 1.74998C8.24523 1.8847 6.74843 2.46442 5.49884 3.42095C4.24925 4.37748 3.29886 5.67101 2.75948 7.14935C2.2201 8.62769 2.11419 10.2293 2.45419 11.7658C2.7942 13.3023 3.56598 14.7097 4.67873 15.8225C5.79148 16.9352 7.1989 17.707 8.73539 18.047C10.2719 18.387 11.8735 18.2811 13.3519 17.7417C14.8302 17.2024 16.1237 16.252 17.0803 15.0024C18.0368 13.7528 18.6165 12.256 18.7512 10.6881C18.7676 10.4892 18.8624 10.3049 19.0147 10.1759C19.1669 10.0469 19.3642 9.98357 19.5631 9.99998C19.762 10.0164 19.9463 10.1111 20.0753 10.2634C20.2044 10.4157 20.2676 10.6129 20.2512 10.8119ZM9.75124 4.74998V9.99998C9.75124 10.1989 9.83026 10.3897 9.97091 10.5303C10.1116 10.671 10.3023 10.75 10.5012 10.75H15.7512C15.9502 10.75 16.1409 10.671 16.2816 10.5303C16.4222 10.3897 16.5012 10.1989 16.5012 9.99998C16.5012 9.80107 16.4222 9.61031 16.2816 9.46965C16.1409 9.329 15.9502 9.24998 15.7512 9.24998H11.2512V4.74998C11.2512 4.55107 11.1722 4.36031 11.0316 4.21965C10.8909 4.079 10.7002 3.99998 10.5012 3.99998C10.3023 3.99998 10.1116 4.079 9.97091 4.21965C9.83026 4.36031 9.75124 4.55107 9.75124 4.74998ZM13.5012 2.49998C13.7237 2.49998 13.9412 2.434 14.1263 2.31039C14.3113 2.18677 14.4555 2.01107 14.5406 1.8055C14.6258 1.59994 14.648 1.37374 14.6046 1.15551C14.5612 0.937279 14.4541 0.736824 14.2967 0.579489C14.1394 0.422155 13.9389 0.31501 13.7207 0.271601C13.5025 0.228193 13.2763 0.250472 13.0707 0.33562C12.8652 0.420769 12.6895 0.564963 12.5658 0.749968C12.4422 0.934973 12.3762 1.15248 12.3762 1.37498C12.3762 1.67335 12.4948 1.9595 12.7057 2.17048C12.9167 2.38146 13.2029 2.49998 13.5012 2.49998ZM16.8762 4.74998C17.0987 4.74998 17.3162 4.684 17.5013 4.56039C17.6863 4.43677 17.8305 4.26107 17.9156 4.0555C18.0008 3.84994 18.023 3.62374 17.9796 3.40551C17.9362 3.18728 17.8291 2.98682 17.6717 2.82949C17.5144 2.67216 17.3139 2.56501 17.0957 2.5216C16.8775 2.47819 16.6513 2.50047 16.4457 2.58562C16.2402 2.67077 16.0645 2.81496 15.9408 2.99997C15.8172 3.18497 15.7512 3.40248 15.7512 3.62498C15.7512 3.92335 15.8698 4.2095 16.0807 4.42048C16.2917 4.63146 16.5779 4.74998 16.8762 4.74998ZM19.1262 8.12498C19.3487 8.12498 19.5662 8.059 19.7513 7.93539C19.9363 7.81177 20.0805 7.63607 20.1656 7.4305C20.2508 7.22494 20.273 6.99874 20.2296 6.78051C20.1862 6.56228 20.0791 6.36182 19.9217 6.20449C19.7644 6.04716 19.5639 5.94001 19.3457 5.8966C19.1275 5.85319 18.9013 5.87547 18.6957 5.96062C18.4902 6.04577 18.3145 6.18996 18.1908 6.37497C18.0672 6.55997 18.0012 6.77748 18.0012 6.99998C18.0012 7.29835 18.1198 7.5845 18.3307 7.79548C18.5417 8.00646 18.8279 8.12498 19.1262 8.12498Z" fill="#3730A3"/>
</svg>
