<svg width="19" height="16" viewBox="0 0 19 16" fill="none" xmlns="http://www.w3.org/2000/svg">
<path d="M5.00122 2C5.00122 1.80109 5.08024 1.61032 5.22089 1.46967C5.36154 1.32902 5.55231 1.25 5.75122 1.25H17.7512C17.9501 1.25 18.1409 1.32902 18.2816 1.46967C18.4222 1.61032 18.5012 1.80109 18.5012 2C18.5012 2.19891 18.4222 2.38968 18.2816 2.53033C18.1409 2.67098 17.9501 2.75 17.7512 2.75H5.75122C5.55231 2.75 5.36154 2.67098 5.22089 2.53033C5.08024 2.38968 5.00122 2.19891 5.00122 2ZM17.7512 7.25H5.75122C5.55231 7.25 5.36154 7.32902 5.22089 7.46967C5.08024 7.61032 5.00122 7.80109 5.00122 8C5.00122 8.19891 5.08024 8.38968 5.22089 8.53033C5.36154 8.67098 5.55231 8.75 5.75122 8.75H17.7512C17.9501 8.75 18.1409 8.67098 18.2816 8.53033C18.4222 8.38968 18.5012 8.19891 18.5012 8C18.5012 7.80109 18.4222 7.61032 18.2816 7.46967C18.1409 7.32902 17.9501 7.25 17.7512 7.25ZM17.7512 13.25H5.75122C5.55231 13.25 5.36154 13.329 5.22089 13.4697C5.08024 13.6103 5.00122 13.8011 5.00122 14C5.00122 14.1989 5.08024 14.3897 5.22089 14.5303C5.36154 14.671 5.55231 14.75 5.75122 14.75H17.7512C17.9501 14.75 18.1409 14.671 18.2816 14.5303C18.4222 14.3897 18.5012 14.1989 18.5012 14C18.5012 13.8011 18.4222 13.6103 18.2816 13.4697C18.1409 13.329 17.9501 13.25 17.7512 13.25ZM1.62622 0.875C1.40372 0.875 1.18621 0.94098 1.0012 1.0646C0.816199 1.18821 0.672005 1.36391 0.586857 1.56948C0.501708 1.77505 0.479429 2.00125 0.522838 2.21948C0.566246 2.43771 0.673392 2.63816 0.830726 2.7955C0.98806 2.95283 1.18852 3.05998 1.40674 3.10338C1.62497 3.14679 1.85117 3.12451 2.05674 3.03936C2.26231 2.95422 2.43801 2.81002 2.56162 2.62502C2.68524 2.44001 2.75122 2.2225 2.75122 2C2.75122 1.70163 2.63269 1.41548 2.42172 1.2045C2.21074 0.993526 1.92459 0.875 1.62622 0.875ZM1.62622 6.875C1.40372 6.875 1.18621 6.94098 1.0012 7.0646C0.816199 7.18821 0.672005 7.36391 0.586857 7.56948C0.501708 7.77505 0.479429 8.00125 0.522838 8.21948C0.566246 8.43771 0.673392 8.63816 0.830726 8.79549C0.98806 8.95283 1.18852 9.05998 1.40674 9.10338C1.62497 9.14679 1.85117 9.12451 2.05674 9.03936C2.26231 8.95422 2.43801 8.81002 2.56162 8.62502C2.68524 8.44001 2.75122 8.2225 2.75122 8C2.75122 7.70163 2.63269 7.41548 2.42172 7.2045C2.21074 6.99353 1.92459 6.875 1.62622 6.875ZM1.62622 12.875C1.40372 12.875 1.18621 12.941 1.0012 13.0646C0.816199 13.1882 0.672005 13.3639 0.586857 13.5695C0.501708 13.775 0.479429 14.0012 0.522838 14.2195C0.566246 14.4377 0.673392 14.6382 0.830726 14.7955C0.98806 14.9528 1.18852 15.06 1.40674 15.1034C1.62497 15.1468 1.85117 15.1245 2.05674 15.0394C2.26231 14.9542 2.43801 14.81 2.56162 14.625C2.68524 14.44 2.75122 14.2225 2.75122 14C2.75122 13.7016 2.63269 13.4155 2.42172 13.2045C2.21074 12.9935 1.92459 12.875 1.62622 12.875Z" fill="#3730A3"/>
</svg>
