<svg width="21" height="18" viewBox="0 0 21 18" fill="none" xmlns="http://www.w3.org/2000/svg">
<path d="M0.7512 9.00005C0.753185 7.21045 1.46498 5.49471 2.73042 4.22927C3.99586 2.96383 5.7116 2.25204 7.5012 2.25005H17.6909L16.7206 1.28068C16.5798 1.13995 16.5008 0.949074 16.5008 0.750051C16.5008 0.551028 16.5798 0.360156 16.7206 0.219426C16.8613 0.0786953 17.0522 -0.000366206 17.2512 -0.000366211C17.4502 -0.000366216 17.6411 0.0786953 17.7818 0.219426L20.0318 2.46943C20.1016 2.53908 20.1569 2.6218 20.1946 2.71285C20.2324 2.80389 20.2518 2.90149 20.2518 3.00005C20.2518 3.09861 20.2324 3.19621 20.1946 3.28726C20.1569 3.3783 20.1016 3.46102 20.0318 3.53068L17.7818 5.78068C17.6411 5.92141 17.4502 6.00047 17.2512 6.00047C17.0522 6.00047 16.8613 5.92141 16.7206 5.78068C16.5798 5.63995 16.5008 5.44907 16.5008 5.25005C16.5008 5.05103 16.5798 4.86016 16.7206 4.71943L17.6909 3.75005H7.5012C6.10927 3.75154 4.77478 4.30514 3.79053 5.28938C2.80629 6.27363 2.25269 7.60812 2.2512 9.00005C2.2512 9.19896 2.17218 9.38973 2.03153 9.53038C1.89088 9.67103 1.70011 9.75005 1.5012 9.75005C1.30229 9.75005 1.11152 9.67103 0.97087 9.53038C0.830218 9.38973 0.7512 9.19896 0.7512 9.00005ZM19.5012 8.25005C19.3023 8.25005 19.1115 8.32907 18.9709 8.46972C18.8302 8.61037 18.7512 8.80114 18.7512 9.00005C18.7497 10.392 18.1961 11.7265 17.2119 12.7107C16.2276 13.695 14.8931 14.2486 13.5012 14.2501H3.31151L4.28183 13.2807C4.35151 13.211 4.40678 13.1283 4.44449 13.0372C4.48221 12.9462 4.50162 12.8486 4.50162 12.7501C4.50162 12.6515 4.48221 12.5539 4.44449 12.4629C4.40678 12.3718 4.35151 12.2891 4.28183 12.2194C4.21214 12.1497 4.12942 12.0945 4.03837 12.0568C3.94733 12.019 3.84975 11.9996 3.7512 11.9996C3.65265 11.9996 3.55507 12.019 3.46403 12.0568C3.37298 12.0945 3.29026 12.1497 3.22058 12.2194L0.970575 14.4694C0.900843 14.5391 0.845524 14.6218 0.80778 14.7128C0.770037 14.8039 0.75061 14.9015 0.75061 15.0001C0.75061 15.0986 0.770037 15.1962 0.80778 15.2873C0.845524 15.3783 0.900843 15.461 0.970575 15.5307L3.22058 17.7807C3.29026 17.8504 3.37298 17.9056 3.46403 17.9433C3.55507 17.9811 3.65265 18.0005 3.7512 18.0005C3.84975 18.0005 3.94733 17.9811 4.03837 17.9433C4.12942 17.9056 4.21214 17.8504 4.28183 17.7807C4.35151 17.711 4.40678 17.6283 4.44449 17.5372C4.48221 17.4462 4.50162 17.3486 4.50162 17.2501C4.50162 17.1515 4.48221 17.0539 4.44449 16.9629C4.40678 16.8718 4.35151 16.7891 4.28183 16.7194L3.31151 15.7501H13.5012C15.2908 15.7481 17.0065 15.0363 18.272 13.7708C19.5374 12.5054 20.2492 10.7897 20.2512 9.00005C20.2512 8.80114 20.1722 8.61037 20.0315 8.46972C19.8909 8.32907 19.7001 8.25005 19.5012 8.25005Z" fill="#3730A3"/>
</svg>
