<svg width="21" height="22" viewBox="0 0 21 22" fill="none" xmlns="http://www.w3.org/2000/svg">
<path d="M17.5268 7.74347L12.933 3.14972C12.8721 3.08879 12.7997 3.04049 12.72 3.00755C12.6403 2.97461 12.555 2.9577 12.4688 2.95776H4.59375C4.24565 2.95776 3.91181 3.09604 3.66567 3.34219C3.41953 3.58833 3.28125 3.92217 3.28125 4.27026V18.7078C3.28125 19.0559 3.41953 19.3897 3.66567 19.6358C3.91181 19.882 4.24565 20.0203 4.59375 20.0203H16.4062C16.7543 20.0203 17.0882 19.882 17.3343 19.6358C17.5805 19.3897 17.7188 19.0559 17.7188 18.7078V8.20776C17.7188 8.12156 17.7019 8.03618 17.669 7.95652C17.636 7.87685 17.5877 7.80446 17.5268 7.74347ZM13.125 5.19804L15.4785 7.55151H13.125V5.19804ZM16.4062 18.7078H4.59375V4.27026H11.8125V8.20776C11.8125 8.38181 11.8816 8.54873 12.0047 8.6718C12.1278 8.79487 12.2947 8.86401 12.4688 8.86401H16.4062V18.7078ZM13.125 13.4578C13.125 13.6318 13.0559 13.7987 12.9328 13.9218C12.8097 14.0449 12.6428 14.114 12.4688 14.114H11.1562V15.4265C11.1562 15.6006 11.0871 15.7675 10.964 15.8906C10.841 16.0136 10.674 16.0828 10.5 16.0828C10.326 16.0828 10.159 16.0136 10.036 15.8906C9.91289 15.7675 9.84375 15.6006 9.84375 15.4265V14.114H8.53125C8.3572 14.114 8.19028 14.0449 8.06721 13.9218C7.94414 13.7987 7.875 13.6318 7.875 13.4578C7.875 13.2837 7.94414 13.1168 8.06721 12.9937C8.19028 12.8707 8.3572 12.8015 8.53125 12.8015H9.84375V11.489C9.84375 11.315 9.91289 11.148 10.036 11.025C10.159 10.9019 10.326 10.8328 10.5 10.8328C10.674 10.8328 10.841 10.9019 10.964 11.025C11.0871 11.148 11.1562 11.315 11.1562 11.489V12.8015H12.4688C12.6428 12.8015 12.8097 12.8707 12.9328 12.9937C13.0559 13.1168 13.125 13.2837 13.125 13.4578Z" fill="#EEF2FF"/>
</svg>
