<svg width="21" height="22" viewBox="0 0 21 22" fill="none" xmlns="http://www.w3.org/2000/svg">
<path d="M18.2224 9.67188L11.6599 3.10938C11.3523 2.80181 10.935 2.62903 10.5 2.62903C10.065 2.62903 9.64775 2.80181 9.34009 3.10938L2.77759 9.67188C2.62462 9.82391 2.50336 10.0048 2.42084 10.204C2.33833 10.4033 2.29619 10.617 2.29688 10.8326V18.7076C2.29688 18.9687 2.40059 19.2191 2.5852 19.4037C2.76981 19.5883 3.02019 19.692 3.28126 19.692H8.53126C8.79233 19.692 9.04271 19.5883 9.22732 19.4037C9.41192 19.2191 9.51563 18.9687 9.51563 18.7076V14.442H11.4844V18.7076C11.4844 18.9687 11.5881 19.2191 11.7727 19.4037C11.9573 19.5883 12.2077 19.692 12.4688 19.692H17.7188C17.9798 19.692 18.2302 19.5883 18.4148 19.4037C18.5994 19.2191 18.7031 18.9687 18.7031 18.7076V10.8326C18.7038 10.617 18.6617 10.4033 18.5792 10.204C18.4967 10.0048 18.3754 9.82391 18.2224 9.67188ZM16.7344 17.7232H13.4531V13.4576C13.4531 13.1965 13.3494 12.9462 13.1648 12.7616C12.9802 12.577 12.7298 12.4732 12.4688 12.4732H8.53126C8.27019 12.4732 8.01981 12.577 7.8352 12.7616C7.65059 12.9462 7.54688 13.1965 7.54688 13.4576V17.7232H4.26563V10.968L10.5 4.7336L16.7344 10.968V17.7232Z" fill="#EEF2FF"/>
</svg>
