<svg width="11" height="7" viewBox="0 0 11 7" fill="none" xmlns="http://www.w3.org/2000/svg">
<path d="M10.8526 1.35378L5.85256 6.35378C5.80613 6.40027 5.75098 6.43715 5.69028 6.46231C5.62958 6.48748 5.56452 6.50043 5.49881 6.50043C5.43311 6.50043 5.36804 6.48748 5.30734 6.46231C5.24664 6.43715 5.1915 6.40027 5.14506 6.35378L0.145063 1.35378C0.0512428 1.25996 -0.00146484 1.13272 -0.00146484 1.00003C-0.00146484 0.867352 0.0512428 0.740104 0.145063 0.646284C0.238883 0.552463 0.366131 0.499756 0.498813 0.499756C0.631495 0.499756 0.758743 0.552463 0.852563 0.646284L5.49881 5.29316L10.1451 0.646284C10.1915 0.599829 10.2467 0.562978 10.3074 0.537837C10.3681 0.512696 10.4331 0.499756 10.4988 0.499756C10.5645 0.499756 10.6296 0.512696 10.6903 0.537837C10.751 0.562978 10.8061 0.599829 10.8526 0.646284C10.899 0.692739 10.9359 0.747889 10.961 0.808586C10.9862 0.869282 10.9991 0.934336 10.9991 1.00003C10.9991 1.06573 10.9862 1.13079 10.961 1.19148C10.9359 1.25218 10.899 1.30733 10.8526 1.35378Z" fill="#78716C"/>
</svg>
