<svg width="11" height="18" viewBox="0 0 11 18" fill="none" xmlns="http://www.w3.org/2000/svg">
<path d="M10.4943 16.1126C10.5756 16.1837 10.64 16.2682 10.684 16.3611C10.728 16.454 10.7507 16.5536 10.7507 16.6541C10.7507 16.7547 10.728 16.8543 10.684 16.9472C10.64 17.0401 10.5756 17.1246 10.4943 17.1957C10.413 17.2668 10.3165 17.3232 10.2102 17.3617C10.104 17.4002 9.99017 17.42 9.8752 17.42C9.76023 17.42 9.64638 17.4002 9.54017 17.3617C9.43395 17.3232 9.33743 17.2668 9.25614 17.1957L0.506137 9.54152C0.424783 9.47043 0.360244 9.38601 0.316211 9.29309C0.272177 9.20017 0.249512 9.10057 0.249512 8.99999C0.249512 8.8994 0.272177 8.7998 0.316211 8.70688C0.360244 8.61396 0.424783 8.52954 0.506137 8.45845L9.25614 0.804296C9.42032 0.660673 9.64301 0.579987 9.8752 0.579987C10.1074 0.579987 10.3301 0.660673 10.4943 0.804296C10.6584 0.947919 10.7507 1.14271 10.7507 1.34583C10.7507 1.54894 10.6584 1.74374 10.4943 1.88736L2.36223 8.99999L10.4943 16.1126Z" fill="#1C1917"/>
</svg>
